<mxfile host="app.diagrams.net" modified="2024-04-11T12:29:34.777Z" agent="Mozilla/5.0 (Windows NT 10.0; Win64; x64) AppleWebKit/537.36 (KHTML, like Gecko) Chrome/123.0.0.0 Safari/537.36" etag="XpkHcyXGxmM_3Z6CE2xi" version="24.2.3" type="github">
  <diagram name="Seite-1" id="nDi9Gie_VPJCrlSmQJZp">
    <mxGraphModel dx="1434" dy="841" grid="1" gridSize="10" guides="1" tooltips="1" connect="1" arrows="1" fold="1" page="1" pageScale="1" pageWidth="2339" pageHeight="3300" math="0" shadow="0">
      <root>
        <mxCell id="0" />
        <mxCell id="1" parent="0" />
        <mxCell id="ZfBndgUZdbE_Ebc2dArC-1" value="Density Kernel" style="swimlane;fontStyle=1;childLayout=stackLayout;horizontal=1;startSize=26;horizontalStack=0;resizeParent=1;resizeParentMax=0;resizeLast=0;collapsible=1;marginBottom=0;align=center;fontSize=14;" parent="1" vertex="1">
          <mxGeometry x="280" y="120" width="160" height="86" as="geometry" />
        </mxCell>
        <mxCell id="ZfBndgUZdbE_Ebc2dArC-2" value="SpikyKernelPow2" style="text;strokeColor=none;fillColor=none;spacingLeft=4;spacingRight=4;overflow=hidden;rotatable=0;points=[[0,0.5],[1,0.5]];portConstraint=eastwest;fontSize=12;whiteSpace=wrap;html=1;" parent="ZfBndgUZdbE_Ebc2dArC-1" vertex="1">
          <mxGeometry y="26" width="160" height="30" as="geometry" />
        </mxCell>
        <mxCell id="ZfBndgUZdbE_Ebc2dArC-4" value="(r-d)&lt;sup&gt;2&lt;/sup&gt; * 6 / pi*r^4&lt;span class=&quot;eusoft-eudic-chrome-extension-translate-content&quot;&gt;&lt;/span&gt;" style="text;strokeColor=none;fillColor=none;spacingLeft=4;spacingRight=4;overflow=hidden;rotatable=0;points=[[0,0.5],[1,0.5]];portConstraint=eastwest;fontSize=12;whiteSpace=wrap;html=1;" parent="ZfBndgUZdbE_Ebc2dArC-1" vertex="1">
          <mxGeometry y="56" width="160" height="30" as="geometry" />
        </mxCell>
        <mxCell id="EBgQpZgXDAFh3XMOeZok-1" value="Near Density Kernel" style="swimlane;fontStyle=1;childLayout=stackLayout;horizontal=1;startSize=26;horizontalStack=0;resizeParent=1;resizeParentMax=0;resizeLast=0;collapsible=1;marginBottom=0;align=center;fontSize=14;" vertex="1" parent="1">
          <mxGeometry x="480" y="120" width="160" height="86" as="geometry" />
        </mxCell>
        <mxCell id="EBgQpZgXDAFh3XMOeZok-2" value="SpikyKernelPow2" style="text;strokeColor=none;fillColor=none;spacingLeft=4;spacingRight=4;overflow=hidden;rotatable=0;points=[[0,0.5],[1,0.5]];portConstraint=eastwest;fontSize=12;whiteSpace=wrap;html=1;" vertex="1" parent="EBgQpZgXDAFh3XMOeZok-1">
          <mxGeometry y="26" width="160" height="30" as="geometry" />
        </mxCell>
        <mxCell id="EBgQpZgXDAFh3XMOeZok-3" value="(r-d)&lt;sup&gt;2&lt;/sup&gt; * 6 / pi*r^4&lt;span class=&quot;eusoft-eudic-chrome-extension-translate-content&quot;&gt;&lt;/span&gt;" style="text;strokeColor=none;fillColor=none;spacingLeft=4;spacingRight=4;overflow=hidden;rotatable=0;points=[[0,0.5],[1,0.5]];portConstraint=eastwest;fontSize=12;whiteSpace=wrap;html=1;" vertex="1" parent="EBgQpZgXDAFh3XMOeZok-1">
          <mxGeometry y="56" width="160" height="30" as="geometry" />
        </mxCell>
      </root>
    </mxGraphModel>
  </diagram>
</mxfile>
